<svg width="55" height="52" viewBox="0 0 55 52" fill="none" xmlns="http://www.w3.org/2000/svg">
<path d="M47.8012 34.5294C43.8254 43.8754 34.4562 48.7574 26.8744 45.4336C19.2926 42.1098 16.3693 31.8389 20.3451 22.4928C24.3208 13.1468 27.5439 5.57031 41.2719 11.5886C55 17.6069 51.777 25.1833 47.8012 34.5294Z" fill="#D9D9D9"/>
<ellipse cx="5.35333" cy="2.70442" rx="5.35333" ry="2.70442" transform="matrix(0.915857 0.401505 -0.39145 0.920199 25.8275 17.8096)" fill="black"/>
<ellipse cx="5.35333" cy="2.70442" rx="5.35333" ry="2.70442" transform="matrix(0.915857 0.401505 -0.39145 0.920199 25.8275 17.8096)" fill="black"/>
<ellipse cx="5.35333" cy="2.70442" rx="5.35333" ry="2.70442" transform="matrix(0.915857 0.401505 -0.39145 0.920199 25.8275 17.8096)" fill="black"/>
<ellipse cx="5.35333" cy="2.70442" rx="5.35333" ry="2.70442" transform="matrix(0.915857 0.401505 -0.39145 0.920199 37.5944 22.9683)" fill="black"/>
<ellipse cx="5.35333" cy="2.70442" rx="5.35333" ry="2.70442" transform="matrix(0.915857 0.401505 -0.39145 0.920199 37.5944 22.9683)" fill="black"/>
<ellipse cx="5.35333" cy="2.70442" rx="5.35333" ry="2.70442" transform="matrix(0.915857 0.401505 -0.39145 0.920199 37.5944 22.9683)" fill="black"/>
<path d="M23.4117 37.1632C23.6456 36.6134 27.0126 36.0453 30.262 37.4698C33.5113 38.8943 35.4125 41.772 35.1787 42.3217C34.9448 42.8715 32.3038 42.2425 29.0835 40.2402C25.4397 39.2333 23.1779 37.713 23.4117 37.1632Z" fill="black"/>
<path d="M35.1873 31.3614C34.2518 33.5605 34.1286 33.85 32.3792 32.4926C30.2063 32.1305 30.3295 31.841 31.265 29.6419C32.6022 27.866 33.8368 26.0451 34.92 26.5199C36.0031 26.9947 35.5439 29.1556 35.1873 31.3614Z" fill="#EDEDED"/>
<path d="M32.7473 18.1155C34.6006 28.1204 29.5233 37.487 21.407 39.0363C13.2907 40.5856 5.20875 33.731 3.35554 23.726C1.50233 13.7211 0 5.61047 14.6959 2.8052C29.3918 -8.20064e-05 30.8941 8.11052 32.7473 18.1155Z" fill="#D9D9D9"/>
<ellipse cx="5.34331" cy="2.70937" rx="5.34331" ry="2.70937" transform="matrix(0.982264 -0.187503 0.182132 0.983274 5.32043 16.7312)" fill="black"/>
<ellipse cx="5.34331" cy="2.70937" rx="5.34331" ry="2.70937" transform="matrix(0.982264 -0.187503 0.182132 0.983274 5.32043 16.7312)" fill="black"/>
<ellipse cx="5.34331" cy="2.70937" rx="5.34331" ry="2.70937" transform="matrix(0.982264 -0.187503 0.182132 0.983274 5.32043 16.7312)" fill="black"/>
<ellipse cx="5.34331" cy="2.70937" rx="5.34331" ry="2.70937" transform="matrix(0.982264 -0.187503 0.182132 0.983274 17.917 14.3267)" fill="black"/>
<ellipse cx="5.34331" cy="2.70937" rx="5.34331" ry="2.70937" transform="matrix(0.982264 -0.187503 0.182132 0.983274 17.917 14.3267)" fill="black"/>
<ellipse cx="5.34331" cy="2.70937" rx="5.34331" ry="2.70937" transform="matrix(0.982264 -0.187503 0.182132 0.983274 17.917 14.3267)" fill="black"/>
<path d="M26.2677 30.073C26.3767 30.6615 23.8985 33.0441 20.4201 33.7081C16.9416 34.3721 13.7802 33.066 13.6712 32.4775C13.5622 31.889 16.0981 30.9109 19.8707 30.7424C23.446 29.5083 26.1587 29.4844 26.2677 30.073Z" fill="black"/>
<path d="M20.5457 22.6514C20.9817 25.0055 21.0391 25.3155 18.841 25.1834C16.8403 26.117 16.7829 25.807 16.3468 23.4529C16.4769 21.2215 16.4972 19.011 17.6567 18.7897C18.8162 18.5683 19.626 20.6204 20.5457 22.6514Z" fill="#EDEDED"/>
</svg>
