<svg width="50" height="50" viewBox="0 0 50 50" fill="none" xmlns="http://www.w3.org/2000/svg">
<g clip-path="url(#clip0_392_148)">
<path d="M50 0H0V50H50V0Z" fill="url(#paint0_linear_392_148)"/>
<path d="M21.3307 8.33325C19.5326 8.33325 18.0734 9.76071 18.0734 11.5197C18.0734 12.0994 18.233 12.6445 18.5099 13.113L19.0187 20.269C19.3085 24.3385 19.5476 27.6717 19.5488 27.675C19.55 27.6783 21.9824 27.6812 24.9542 27.6812H30.3574L32.5289 32.7859C33.723 35.5932 34.72 37.9368 34.7452 37.9947C34.7781 38.0705 34.8014 38.0964 34.8303 38.0884C40.2132 37.2771 43.2226 32.023 36.4589 34.8498C36.4484 34.8497 35.4802 32.6241 34.3066 29.9035C33.1329 27.1829 32.1643 24.9474 32.1542 24.9363C32.1372 24.9176 25.3619 24.9501 23.0999 24.98L22.095 24.9946L22.0417 24.2241C22.0117 23.8007 21.9793 23.3751 21.9715 23.2785L21.9588 23.1035H25.595H29.2334V21.7228V20.3419H25.4545H21.6756V20.2815C21.6756 20.1993 21.4073 15.3983 21.3647 14.7083C23.1472 14.6904 24.588 13.2676 24.588 11.5197C24.588 9.76071 23.1288 8.33325 21.3307 8.33325ZM17.9776 20.8772L17.6689 21.0313C15.5367 22.103 13.7955 23.8764 12.7426 26.0463C12.1869 27.1915 11.8425 28.3897 11.6994 29.6785C11.6562 30.067 11.6563 31.4432 11.6994 31.8341C11.717 31.994 11.7631 32.3134 11.8016 32.5443C12.4603 36.4939 15.2846 39.8006 19.0911 41.0749C19.9236 41.3536 20.771 41.5245 21.7118 41.606C22.0775 41.6377 23.2761 41.6173 23.6428 41.5726C24.538 41.4635 25.2412 41.3022 26.0463 41.0207C28.6252 40.1193 30.8297 38.2421 32.101 35.8661L32.2245 35.6371L31.2771 33.6939C30.7568 32.6251 30.3259 31.751 30.3191 31.7508C30.3122 31.7506 30.2871 31.8736 30.2637 32.0257C30.1852 32.5365 30.0021 33.1922 29.7932 33.7106C29.092 35.4509 27.7133 36.9573 26.0569 37.7926C25.4382 38.1047 25.0233 38.2689 24.4943 38.4091C22.3235 38.9843 20.0168 38.6047 18.1565 37.3678C17.6738 37.0468 17.3351 36.7691 16.9302 36.3639C15.765 35.1979 15.0298 33.807 14.7246 32.186C14.6316 31.692 14.6124 31.4418 14.6139 30.7199C14.6152 30.1192 14.6231 29.9663 14.6692 29.6661C14.9192 28.0379 15.5563 26.6633 16.6194 25.4528C16.9997 25.0197 17.5583 24.5272 18.0223 24.2178C18.1319 24.1447 18.2225 24.0691 18.2225 24.0491C18.2225 23.986 18.0074 21.1347 17.9925 21.0021L17.9776 20.8772Z" fill="white"/>
</g>
<defs>
<linearGradient id="paint0_linear_392_148" x1="0" y1="25" x2="50" y2="25" gradientUnits="userSpaceOnUse">
<stop stop-color="#3E3C9F"/>
<stop offset="1" stop-color="#271AB6"/>
</linearGradient>
<clipPath id="clip0_392_148">
<rect width="50" height="50" fill="white"/>
</clipPath>
</defs>
</svg>
