<svg width="32" height="16" viewBox="0 0 32 16" fill="none" xmlns="http://www.w3.org/2000/svg">
<path d="M1 6.99995C0.447715 6.99995 0 7.44767 0 7.99995C0 8.55223 0.447715 8.99995 1 8.99995V6.99995ZM31.7071 8.70706C32.0976 8.31653 32.0976 7.68337 31.7071 7.29284L25.3431 0.92888C24.9526 0.538355 24.3195 0.538355 23.9289 0.92888C23.5384 1.31941 23.5384 1.95257 23.9289 2.3431L29.5858 7.99995L23.9289 13.6568C23.5384 14.0473 23.5384 14.6804 23.9289 15.071C24.3195 15.4615 24.9526 15.4615 25.3431 15.071L31.7071 8.70706ZM1 8.99995H31V6.99995H1V8.99995Z" fill="#3E3C9F"/>
</svg>
