<svg width="140" height="140" viewBox="0 0 140 140" fill="none" xmlns="http://www.w3.org/2000/svg">
<path d="M88.375 121.625L105 105V140H70L88.375 121.625Z" fill="#012B00"/>
<path d="M18.375 121.625L35 105V140H0L18.375 121.625Z" fill="#0F5A2D"/>
<path d="M53.375 86.625L70 70V105H35L53.375 86.625Z" fill="#0F5A2D"/>
<path d="M88.375 51.625L105 35V70H70L88.375 51.625Z" fill="#0F5A2D"/>
<path d="M123.375 16.625L140 0V35H105L123.375 16.625Z" fill="#0F5A2D"/>
<path d="M123.375 86.625L140 70V105H105L123.375 86.625Z" fill="#012B00"/>
<path d="M88.375 86.625L105 70V105H70L88.375 86.625Z" fill="#043902"/>
<path d="M53.375 121.625L70 105V140H35L53.375 121.625Z" fill="#043902"/>
<path d="M123.375 121.625L140 105V140H105L123.375 121.625Z" fill="black"/>
<path d="M123.375 51.625L140 35V70H105L123.375 51.625Z" fill="#043902"/>
<path d="M51.625 123.375L35 140V105H70L51.625 123.375Z" fill="#0A5327"/>
<path d="M121.625 123.375L105 140V105H140L121.625 123.375Z" fill="#012100"/>
<path d="M86.625 123.375L70 140V105H105L86.625 123.375Z" fill="#012E00"/>
<path d="M86.625 88.375L70 105V70H105L86.625 88.375Z" fill="#0A5327"/>
<path d="M121.625 88.375L105 105V70H140L121.625 88.375Z" fill="#012E00"/>
<path d="M121.625 53.375L105 70V35H140L121.625 53.375Z" fill="#0A5327"/>
</svg>
