<svg width="401" height="401" viewBox="0 0 401 401" fill="none" xmlns="http://www.w3.org/2000/svg">
<rect width="400" height="400" transform="matrix(-1 0 0 1 400.001 0.00292969)" fill="#BDBDC0"/>
<path d="M180.477 218.229L219.526 218.229C222.06 218.229 224.032 216.258 224.032 213.723L224.032 186.69C224.032 184.249 222.06 182.184 219.526 182.184L180.477 182.184C178.037 182.184 175.972 184.249 175.972 186.69L175.972 213.723C175.972 216.258 178.037 218.229 180.477 218.229ZM213.519 187.441C216.428 187.441 218.775 189.881 218.775 192.697C218.775 195.607 216.428 197.954 213.519 197.954C210.702 197.954 208.262 195.607 208.262 192.697C208.262 189.881 210.702 187.441 213.519 187.441ZM218.024 212.221L181.979 212.221V201.708L190.239 193.542C190.709 193.073 191.366 193.073 191.835 193.542L204.507 206.214L209.764 201.051C210.233 200.582 210.89 200.582 211.36 201.051L218.024 207.716V212.221Z" fill="#2B2B2B"/>
</svg>
