<svg width="69" height="61" viewBox="0 0 69 61" fill="none" xmlns="http://www.w3.org/2000/svg">
<circle cx="30.1609" cy="30.1609" r="24" transform="rotate(17.7008 30.1609 30.1609)" fill="#BB7000"/>
<line x1="37.9343" y1="7.44914" x2="23.3401" y2="53.1767" stroke="black"/>
<line x1="7.4489" y1="22.3874" x2="53.1764" y2="36.9817" stroke="black"/>
<path d="M47.9777 13.8038L44.3369 16.0011C43.7321 16.3662 43.1677 16.7943 42.6531 17.2783L41.5649 18.3018C40.327 19.4661 39.4062 20.9267 38.8895 22.5457L38.1571 24.8404L36.3328 30.5563L34.4271 36.5274C34.0786 37.6194 33.9204 38.7631 33.9595 39.9087L34.1147 44.4604C34.1406 45.2218 34.2535 45.9778 34.4512 46.7136L36.3124 53.6431" stroke="black"/>
<path d="M25.1141 6.50653L26.8088 10.4067C27.0903 11.0546 27.3024 11.7305 27.4414 12.4232L27.7355 13.8878C28.0701 15.554 27.9745 17.278 27.4578 18.897L26.7254 21.1917L24.9012 26.9076L22.9954 32.8787C22.6469 33.9707 22.1133 34.9946 21.4178 35.9057L18.6545 39.526C18.1922 40.1316 17.6623 40.6824 17.0749 41.1676L11.5435 45.7377" stroke="black"/>
<ellipse cx="48.5008" cy="46.6131" rx="18" ry="8" transform="rotate(-15.8539 48.5008 46.6131)" fill="#811212"/>
<rect x="33.6675" y="45.6277" width="1" height="10" transform="rotate(-15.8539 33.6675 45.6277)" fill="#D9D9D9"/>
<rect x="59" y="38.2732" width="1" height="10.2954" transform="rotate(-15.8539 59 38.2732)" fill="#D9D9D9"/>
<rect x="42.0518" y="42.2073" width="11" height="1" transform="rotate(-15.8539 42.0518 42.2073)" fill="#D9D9D9"/>
<rect x="42.7407" y="40.9719" width="1" height="3" transform="rotate(-15.8539 42.7407 40.9719)" fill="#D9D9D9"/>
<rect x="50.4365" y="38.7866" width="1" height="3" transform="rotate(-15.8539 50.4365 38.7866)" fill="#D9D9D9"/>
<rect x="44.6646" y="40.4258" width="1" height="3" transform="rotate(-15.8539 44.6646 40.4258)" fill="#D9D9D9"/>
<rect x="48.5122" y="39.333" width="1" height="3" transform="rotate(-15.8539 48.5122 39.333)" fill="#D9D9D9"/>
<rect x="46.5884" y="39.8794" width="1" height="3" transform="rotate(-15.8539 46.5884 39.8794)" fill="#D9D9D9"/>
<path d="M36.1436 43.3652L37.5153 44.535L39.9856 45.9125L43.2812 46.5359L45.8227 46.3339L48.7086 45.5144" stroke="black"/>
<path d="M58.4053 37.563L57.774 39.1598L56.2631 41.479L53.6243 43.6459L51.239 44.7958L48.2277 45.651" stroke="black"/>
</svg>
