<svg width="109" height="127" viewBox="0 0 109 127" fill="none" xmlns="http://www.w3.org/2000/svg">
<path opacity="0.2" d="M41.7072 66.0192L49 65L94.5 71.5L109 74L71 103L25 109.5L7 88L0.5 71.5V36L22.2072 1.51923L41.7072 32.5V66.0192Z" fill="black"/>
<ellipse cx="40.1756" cy="85.1756" rx="3.13428" ry="20" transform="rotate(14.5684 40.1756 85.1756)" fill="black"/>
<ellipse cx="64.1631" cy="70.8908" rx="3.13428" ry="20" transform="rotate(104.034 64.1631 70.8908)" fill="black"/>
<ellipse cx="34.467" cy="24.4673" rx="2.30861" ry="12.4943" transform="rotate(135.001 34.467 24.4673)" fill="black"/>
<ellipse cx="59.7043" cy="34.373" rx="2.30861" ry="12.4943" transform="rotate(80.3373 59.7043 34.373)" fill="black"/>
<ellipse cx="40.9886" cy="113.469" rx="3.2374" ry="13.4644" transform="rotate(-26.9526 40.9886 113.469)" fill="black"/>
<ellipse cx="24.3097" cy="9.39709" rx="2.08373" ry="9.16726" transform="rotate(-14.48 24.3097 9.39709)" fill="black"/>
<ellipse cx="77.628" cy="27.096" rx="2.08373" ry="9.16726" transform="rotate(-126.203 77.628 27.096)" fill="black"/>
<ellipse cx="91.5291" cy="75.518" rx="3.2374" ry="13.4644" transform="rotate(-91.197 91.5291 75.518)" fill="black"/>
<path d="M48.0011 49.0235C53.9997 71 49.9997 69.5 44.0007 69.5C38.9998 69.5 40.4998 63 41.5007 50C42.285 39.8129 40.687 30.5235 44.0007 30.5235C47.3144 30.5235 49.5011 32.0235 48.0011 49.0235Z" fill="black"/>
<circle cx="49.5" cy="23.5" r="7.5" fill="black"/>
</svg>
