<svg width="85" height="49" viewBox="0 0 85 49" fill="none" xmlns="http://www.w3.org/2000/svg">
<rect x="4.68237" y="16.1711" width="46" height="14" transform="rotate(-20.582 4.68237 16.1711)" fill="#B18B00"/>
<line x1="1.12113" y1="35.1335" x2="62.9084" y2="11.9313" stroke="#544203" stroke-width="5"/>
<rect x="7.84619" y="24.5967" width="46" height="5" transform="rotate(-20.582 7.84619 24.5967)" fill="#7E6406"/>
<circle cx="50.7491" cy="32.7491" r="8" transform="rotate(14.5088 50.7491 32.7491)" fill="black"/>
<circle cx="74.9518" cy="39.0123" r="8" transform="rotate(14.5088 74.9518 39.0123)" fill="black"/>
<circle cx="62.9757" cy="35.3967" r="4" transform="rotate(14.5088 62.9757 35.3967)" stroke="#848484"/>
<rect x="58.7445" y="33.7853" width="9" height="6" transform="rotate(14.5088 58.7445 33.7853)" fill="white"/>
<path d="M59.7126 34.0358C59.6434 34.3032 58.7613 34.8226 58.494 34.7534C58.494 34.7534 58.5501 34.5367 58.6192 34.2694C58.6884 34.002 58.7445 33.7853 58.7445 33.7853C59.0119 33.8545 59.7126 34.0358 59.7126 34.0358Z" fill="#848484"/>
<path d="M66.4894 35.7895C66.4202 36.0569 66.9396 36.939 67.207 37.0081C67.207 37.0081 67.2631 36.7915 67.3322 36.5241C67.4014 36.2568 67.4575 36.04 67.4575 36.04C67.1902 35.9709 66.4894 35.7895 66.4894 35.7895Z" fill="#848484"/>
</svg>
