<svg xmlns="http://www.w3.org/2000/svg" width="588" height="138" viewBox="0 0 588 138" aria-hidden="true" aria-label="Spełniamy Standard WAI-AA WCAG 2.1"><path fill="#F1F2F2" stroke="#808285" stroke-width="2" stroke-miterlimit="10" d="M1 1h561v136H1z"></path><path fill="#FFF" d="M1 1h254v136H1z"></path><path fill="#FFCC67" d="M255 1h307v136H255z"></path><path d="M310.17 111.361h-8.497l-4.345-16.986a17.569 17.569 0 01-.229-.99l-.302-1.437a98.272 98.272 0 01-.905-4.889 27.37 27.37 0 01-.157-1.119 27.37 27.37 0 01-.157 1.119c-.072.463-.157.966-.253 1.508s-.197 1.104-.302 1.685c-.105.581-.209 1.139-.314 1.673s-.205 1.021-.302 1.46c-.096.44-.177.786-.241 1.037l-4.297 16.939h-8.521l-8.497-34.444h7.363l4.007 18.801c.048.251.117.616.206 1.096.088.479.189 1.017.302 1.613.112.598.229 1.226.35 1.885.121.66.237 1.305.35 1.933l.314 1.755c.097.542.169.985.217 1.331.048-.346.117-.785.205-1.319s.181-1.104.278-1.708a67.78 67.78 0 01.326-1.873c.121-.644.229-1.245.326-1.803.096-.557.189-1.052.277-1.484.088-.432.157-.742.205-.931l4.9-19.295h6.566l4.9 19.295c.048.188.117.499.206.931a109.944 109.944 0 01.616 3.287l.326 1.873c.104.604.201 1.174.29 1.708.088.534.157.974.205 1.319.048-.346.117-.789.205-1.331s.189-1.127.302-1.755.229-1.272.35-1.933c.121-.659.237-1.287.35-1.885l.302-1.613c.088-.479.157-.845.205-1.096l4.007-18.801h7.363l-8.5 34.444zM337.617 82.5c-1.433 0-2.7.271-3.802.813a7.55 7.55 0 00-2.776 2.332c-.749 1.013-1.316 2.246-1.702 3.699s-.579 3.083-.579 4.889c0 1.838.173 3.472.519 4.9.346 1.43.877 2.635 1.593 3.616a6.868 6.868 0 002.752 2.238c1.118.511 2.45.766 3.995.766 1.432 0 2.868-.156 4.309-.471s3.006-.762 4.695-1.343v6.125c-.772.314-1.537.582-2.293.802-.757.22-1.529.4-2.318.542a26.41 26.41 0 01-2.426.317c-.829.071-1.718.106-2.667.106-2.72 0-5.078-.424-7.073-1.272-1.996-.849-3.646-2.042-4.949-3.581-1.304-1.539-2.269-3.393-2.897-5.561-.627-2.167-.941-4.578-.941-7.232 0-2.607.362-4.999 1.086-7.175.724-2.175 1.786-4.048 3.187-5.619 1.4-1.57 3.13-2.791 5.19-3.663 2.06-.872 4.425-1.308 7.097-1.308 1.754 0 3.512.216 5.274.647a27.158 27.158 0 015.057 1.779l-2.414 5.938a40.701 40.701 0 00-3.983-1.603c-1.335-.452-2.647-.681-3.934-.681zM374.261 111.361l-2.414-8.198H359.68l-2.438 8.198h-7.556l11.466-34.586h9.149l11.515 34.586h-7.555zm-4.152-14.324l-2.269-7.539a41.52 41.52 0 01-.435-1.391c-.193-.644-.398-1.354-.616-2.132s-.422-1.559-.616-2.345a21.727 21.727 0 01-.41-2.002 37.32 37.32 0 01-.253 1.225 44.67 44.67 0 01-.362 1.496c-.137.526-.277 1.057-.422 1.591l-.41 1.508c-.129.471-.246.888-.35 1.248-.105.362-.181.629-.229.802l-2.245 7.539h8.617zM399.173 92.019h14.001v17.858c-.933.299-1.874.569-2.824.813-.949.243-1.935.447-2.957.612a42.42 42.42 0 01-6.771.531c-2.64 0-4.978-.381-7.013-1.143-2.036-.762-3.75-1.893-5.143-3.393-1.392-1.5-2.449-3.354-3.174-5.561-.724-2.207-1.086-4.755-1.086-7.646 0-2.701.402-5.144 1.207-7.327s1.992-4.04 3.561-5.572c1.568-1.531 3.5-2.709 5.793-3.534 2.293-.824 4.921-1.236 7.882-1.236 1.883 0 3.726.196 5.528.589 1.802.393 3.451.903 4.948 1.531l-2.486 5.843c-1.095-.533-2.329-.981-3.705-1.343s-2.821-.542-4.333-.542c-1.642 0-3.118.279-4.43.837a9.581 9.581 0 00-3.368 2.367c-.934 1.021-1.649 2.255-2.148 3.699-.499 1.445-.748 3.056-.748 4.83 0 1.696.173 3.247.519 4.653.347 1.405.89 2.619 1.63 3.64.74 1.021 1.693 1.814 2.86 2.38s2.563.848 4.188.848c1.063 0 1.959-.047 2.691-.141.732-.095 1.42-.204 2.064-.33v-7.186h-6.688v-6.077zM455.636 111.361h-23.681v-5.065l8.304-8.74c1.046-1.1 1.996-2.112 2.849-3.04a25.62 25.62 0 002.197-2.709c.611-.88 1.086-1.774 1.424-2.686s.507-1.893.507-2.945c0-1.162-.358-2.065-1.074-2.71-.716-.644-1.678-.966-2.885-.966-1.271 0-2.494.307-3.669.919s-2.406 1.484-3.693 2.615l-4.056-4.688a34.167 34.167 0 012.27-1.85 15.679 15.679 0 012.606-1.566c.95-.455 1.996-.82 3.139-1.096 1.143-.274 2.422-.412 3.838-.412 1.689 0 3.207.228 4.551.684 1.343.455 2.49 1.104 3.439 1.943a8.416 8.416 0 012.185 3.051c.507 1.194.761 2.537.761 4.029 0 1.351-.241 2.643-.725 3.875a17.166 17.166 0 01-1.979 3.629 32.641 32.641 0 01-2.908 3.534 104.497 104.497 0 01-3.537 3.569l-4.248 4.17v.33h14.387v6.125zM460.029 107.992c0-.738.108-1.362.326-1.873.217-.51.519-.922.905-1.236a3.645 3.645 0 011.352-.684 6.246 6.246 0 011.666-.212c.563 0 1.098.07 1.605.212.507.142.953.369 1.339.684.387.314.692.727.918 1.236.225.511.338 1.135.338 1.873 0 .707-.113 1.312-.338 1.814a3.491 3.491 0 01-.918 1.249 3.62 3.62 0 01-1.339.718 5.675 5.675 0 01-1.605.225 5.932 5.932 0 01-1.666-.225 3.592 3.592 0 01-1.352-.718 3.36 3.36 0 01-.905-1.249c-.217-.502-.326-1.107-.326-1.814zM491.024 111.361h-7.459V91.43a95.311 95.311 0 01.061-3.263c.024-.621.049-1.245.072-1.873.024-.629.044-1.202.061-1.721-.081.095-.217.236-.41.425s-.41.396-.652.624c-.241.228-.49.459-.748.695-.258.235-.507.447-.748.636l-4.056 3.181-3.621-4.382 11.37-8.835h6.131v34.444zM351.973 60.391h-8.497l-4.345-16.987a17.569 17.569 0 01-.229-.99l-.302-1.437a98.272 98.272 0 01-.905-4.889 26.891 26.891 0 01-.157-1.119c-.032.283-.084.656-.157 1.119s-.157.966-.253 1.508-.197 1.104-.302 1.685c-.105.581-.209 1.139-.314 1.673s-.205 1.021-.302 1.46c-.096.44-.177.786-.241 1.037l-4.297 16.94h-8.521l-8.497-34.445h7.363l4.007 18.801c.048.251.117.617.206 1.096.088.479.189 1.017.302 1.614a461.672 461.672 0 01.7 3.817l.314 1.755c.097.542.169.986.217 1.332.048-.346.117-.785.205-1.319s.181-1.104.278-1.708a67.78 67.78 0 01.326-1.873c.121-.644.229-1.245.326-1.802.096-.557.189-1.052.277-1.484.088-.432.157-.742.205-.931l4.9-19.295h6.566l4.9 19.295c.048.188.117.499.206.931.088.432.185.927.29 1.484.104.558.213 1.159.326 1.802l.326 1.873c.104.605.201 1.174.29 1.708.088.534.157.974.205 1.319.048-.346.117-.79.205-1.332.088-.542.189-1.126.302-1.755a592.743 592.743 0 01.7-3.817l.302-1.614.205-1.096 4.007-18.801h7.363l-8.5 34.445zM384.055 60.391l-2.414-8.199h-12.167l-2.438 8.199h-7.556l11.466-34.586h9.149l11.515 34.586h-7.555zm-4.152-14.325l-2.269-7.539a42.04 42.04 0 01-.435-1.39c-.193-.644-.398-1.355-.616-2.132s-.422-1.559-.616-2.344a21.794 21.794 0 01-.41-2.002 37.32 37.32 0 01-.253 1.225c-.105.471-.226.97-.362 1.496-.137.526-.277 1.057-.422 1.59l-.41 1.508c-.129.471-.246.888-.35 1.249-.105.362-.181.628-.229.801l-2.245 7.539h8.617zM409.257 60.391h-16.054v-4.146l4.297-1.932V32.024l-4.297-1.932v-4.146h16.054v4.146l-4.297 1.932v22.288l4.297 1.932v4.147zM412.322 50.401v-5.89h12.963v5.89h-12.963zM451.332 60.391l-2.414-8.199h-12.166l-2.438 8.199h-7.556l11.467-34.586h9.148l11.515 34.586h-7.556zm-4.152-14.325l-2.269-7.539c-.097-.283-.241-.746-.435-1.39s-.398-1.355-.616-2.132a77.547 77.547 0 01-.615-2.344 21.794 21.794 0 01-.41-2.002c-.064.346-.149.754-.254 1.225s-.226.97-.361 1.496c-.138.526-.278 1.057-.423 1.59l-.41 1.508c-.129.471-.246.888-.351 1.249-.104.362-.181.628-.229.801l-2.245 7.539h8.618zM483.462 60.391l-2.414-8.199h-12.166l-2.438 8.199h-7.556l11.467-34.586h9.148l11.515 34.586h-7.556zm-4.152-14.325l-2.269-7.539c-.097-.283-.241-.746-.435-1.39s-.398-1.355-.616-2.132a77.547 77.547 0 01-.615-2.344 21.794 21.794 0 01-.41-2.002c-.064.346-.149.754-.254 1.225s-.226.97-.361 1.496c-.138.526-.278 1.057-.423 1.59l-.41 1.508c-.129.471-.246.888-.351 1.249-.104.362-.181.628-.229.801l-2.245 7.539h8.618z"></path><defs><filter filterUnits="userSpaceOnUse" x="298.928" y="51.926" width="22.581" height="18.715"><feColorMatrix values="1 0 0 0 0 0 1 0 0 0 0 0 1 0 0 0 0 0 1 0"></feColorMatrix></filter></defs><mask maskUnits="userSpaceOnUse" x="298.928" y="51.926" width="22.581" height="18.715"><linearGradient gradientUnits="userSpaceOnUse" x1="377.283" y1="-28422.133" x2="377.282" y2="-38902.191" gradientTransform="matrix(.0018 0 0 -.0018 121.482 -227.585)"><stop offset="0" stop-color="#fff" stop-opacity="0"></stop><stop offset=".388" stop-color="#fff"></stop><stop offset="1" stop-color="#fff" stop-opacity=".831"></stop></linearGradient><path fill="url(#a)" filter="url(#b)" d="M298.889 51.887h22.66v18.794h-22.66V51.887z"></path></mask><linearGradient gradientUnits="userSpaceOnUse" x1="377.283" y1="-28421.988" x2="377.283" y2="-38901.922" gradientTransform="matrix(.0018 0 0 -.0018 121.482 -227.585)"><stop offset="0" stop-color="#d2d3d4"></stop><stop offset=".388" stop-color="#d2d3d4"></stop><stop offset="1" stop-color="#d2d3d4"></stop></linearGradient><defs><filter filterUnits="userSpaceOnUse" x="321.509" y="41.853" width="24.187" height="19.454"><feColorMatrix values="1 0 0 0 0 0 1 0 0 0 0 0 1 0 0 0 0 0 1 0"></feColorMatrix></filter></defs><mask maskUnits="userSpaceOnUse" x="321.509" y="41.853" width="24.187" height="19.454"><linearGradient gradientUnits="userSpaceOnUse" x1="367.58" y1="-22781.318" x2="367.579" y2="-33674.449" gradientTransform="matrix(.0018 0 0 -.0018 121.482 -227.585)"><stop offset="0" stop-color="#fff" stop-opacity="0"></stop><stop offset=".388" stop-color="#fff"></stop><stop offset="1" stop-color="#fff" stop-opacity=".831"></stop></linearGradient><path fill="url(#e)" filter="url(#f)" d="M321.47 41.814h24.265v19.532H321.47V41.814z"></path></mask><linearGradient gradientUnits="userSpaceOnUse" x1="367.58" y1="-22781.43" x2="367.579" y2="-33674.75" gradientTransform="matrix(.0018 0 0 -.0018 121.482 -227.585)"><stop offset="0" stop-color="#d2d3d4"></stop><stop offset=".388" stop-color="#d2d3d4"></stop><stop offset="1" stop-color="#d2d3d4"></stop></linearGradient><linearGradient gradientUnits="userSpaceOnUse" x1="9362.141" y1="78.989" x2="34532.063" y2="78.989" gradientTransform="matrix(.0018 0 0 -.0018 121.482 -227.585)"><stop offset="0" stop-color="#e8e7e5"></stop><stop offset="1" stop-color="#fff"></stop></linearGradient><linearGradient gradientUnits="userSpaceOnUse" x1="8204.086" y1="46.615" x2="35530.633" y2="46.615" gradientTransform="matrix(.0018 0 0 -.0018 121.482 -227.585)"><stop offset="0" stop-color="#e8e7e5"></stop><stop offset="1" stop-color="#fff"></stop></linearGradient><path fill="#006838" d="M575.06 55.818l-38.676 39.64-18.116-17.171-12.729 12.734 30.845 29.912 51.407-52.385-12.731-12.73z"></path><path fill="#0067B1" d="M68.491 14.37l18.983 64.542 18.983-64.542h51.47v6.414l-19.379 33.384c6.812 2.184 11.962 6.157 15.451 11.916 3.489 5.766 5.234 12.525 5.234 20.29 0 9.606-2.55 17.68-7.655 24.221-5.105 6.548-11.718 9.818-19.836 9.818-6.11 0-11.435-1.944-15.972-5.826-4.539-3.883-7.9-9.143-10.081-15.773l10.734-4.449c1.573 4.011 3.646 7.179 6.221 9.49s5.609 3.47 9.097 3.47c3.663 0 6.767-2.054 9.297-6.154 2.53-4.102 3.799-9.033 3.799-14.796 0-6.374-1.358-11.306-4.063-14.795-3.143-4.101-8.074-6.151-14.794-6.151h-5.234v-6.282l18.328-31.685h-22.126l-1.259 2.144-26.907 90.808h-1.309l-19.638-65.72-19.637 65.72h-1.31L15.469 14.37h13.746L48.2 78.912l12.83-43.463-6.284-21.079h13.745z"></path><path fill-rule="evenodd" clip-rule="evenodd" fill="#010101" d="M229.256 19.906c2.002 0 2.917.557 2.917 1.949 0 1.336-.915 1.81-2.865 1.81h-1.81v-3.759h1.758zm.387-1.39h-4.288v11.355h2.144v-4.843h2.118l2.312 4.843h2.396l-2.537-5.176c1.642-.334 2.588-1.449 2.588-3.062-.002-2.06-1.56-3.117-4.733-3.117zm8.433 5.955c0 2.31-.895 4.454-2.53 6.039-1.731 1.671-3.869 2.561-6.238 2.561-2.228 0-4.423-.917-6.065-2.588-1.642-1.671-2.562-3.813-2.562-6.095 0-2.283.946-4.509 2.646-6.234 1.584-1.615 3.728-2.477 6.065-2.477 2.395 0 4.538.892 6.206 2.588 1.616 1.614 2.478 3.785 2.478 6.206zm-8.711-10.101c-2.697 0-5.125.974-6.96 2.837-1.944 1.977-3.032 4.538-3.032 7.181 0 2.645 1.03 5.092 2.923 7.014 1.919 1.948 4.397 3.005 7.069 3.005 2.614 0 5.15-1.058 7.127-2.978 1.887-1.836 2.917-4.286 2.917-7.042a10.01 10.01 0 00-2.891-7.041c-1.918-1.948-4.429-2.976-7.153-2.976z"></path><path fill="#010101" d="M212.51 13.771l2.228 13.538-7.88 15.08s-3.026-6.398-8.055-9.939c-4.236-2.984-6.998-3.633-11.312-2.743-5.544 1.143-11.821 7.77-14.563 15.938-3.283 9.775-3.315 14.504-3.432 18.85-.181 6.967.914 11.082.914 11.082s-4.783-8.853-4.738-21.821c.032-9.255 1.487-17.65 5.769-25.933 3.767-7.283 9.368-11.653 14.338-12.167 5.138-.531 9.2 1.946 12.336 4.625 3.296 2.815 6.631 8.969 6.631 8.969l7.764-15.479zM213.482 90.371s-3.483 6.227-5.653 8.628c-2.176 2.395-6.058 6.625-10.854 8.736-4.797 2.118-7.313 2.518-12.053 2.061-4.738-.457-9.142-3.2-10.681-4.346-1.545-1.14-5.485-4.514-7.713-7.655s-5.711-9.419-5.711-9.419 1.944 6.29 3.154 8.968c.702 1.539 2.846 6.239 5.897 10.334 2.846 3.824 8.37 10.397 16.766 11.885s14.164-2.285 15.594-3.2c1.429-.914 4.436-3.431 6.342-5.472 1.989-2.125 3.869-4.842 4.912-6.464.76-1.191 2.002-3.605 2.002-3.605l-2.002-10.451z"></path></svg>