<svg xmlns="http://www.w3.org/2000/svg" width="588" height="138" viewBox="0 0 588 138" aria-hidden="true" aria-label="Spełniamy Standard W3C CSS 3"><path fill="#F1F2F2" stroke="#808285" stroke-width="2" stroke-miterlimit="10" d="M1 1h561v136H1z"></path><path fill="#FFF" d="M1 1h254v136H1z"></path><path fill="#FFCC67" d="M255 1h307v136H255z"></path><path d="M367.576 53.486c-1.738 0-3.276.337-4.614 1.011s-2.461 1.641-3.369 2.9-1.597 2.793-2.065 4.6c-.469 1.807-.703 3.833-.703 6.079 0 2.285.21 4.316.63 6.094s1.064 3.276 1.934 4.497 1.982 2.148 3.34 2.783 2.974.952 4.849.952c1.738 0 3.481-.195 5.229-.586s3.647-.947 5.698-1.67v7.617a26.928 26.928 0 01-5.596 1.67c-.958.176-1.938.308-2.944.396s-2.085.132-3.237.132c-3.301 0-6.162-.527-8.584-1.582s-4.424-2.539-6.006-4.453-2.754-4.219-3.516-6.914-1.143-5.693-1.143-8.994c0-3.242.439-6.215 1.318-8.921.879-2.705 2.168-5.034 3.867-6.987 1.699-1.953 3.799-3.472 6.299-4.556s5.371-1.626 8.613-1.626c2.129 0 4.263.269 6.401.806a32.376 32.376 0 016.138 2.212l-2.93 7.383a48.62 48.62 0 00-4.834-1.992c-1.621-.567-3.213-.851-4.775-.851zM411.081 77.48c0 1.914-.327 3.638-.981 5.171s-1.611 2.842-2.871 3.926-2.803 1.919-4.629 2.505-3.921.879-6.284.879c-2.07 0-4.067-.215-5.991-.645s-3.706-1.074-5.346-1.934v-8.438c.938.449 1.884.884 2.841 1.304s1.929.796 2.915 1.128 1.973.596 2.959.791 1.968.293 2.944.293c.996 0 1.851-.112 2.563-.337s1.289-.537 1.729-.938.762-.879.967-1.436.308-1.167.308-1.831c0-.801-.171-1.509-.513-2.124s-.82-1.191-1.436-1.729-1.357-1.06-2.227-1.567-1.841-1.045-2.915-1.611a62.286 62.286 0 01-3.018-1.699 16.148 16.148 0 01-3.149-2.476c-.986-.986-1.812-2.178-2.476-3.574-.664-1.396-.996-3.071-.996-5.024 0-1.914.317-3.628.952-5.142.635-1.513 1.538-2.793 2.71-3.838 1.172-1.044 2.593-1.841 4.263-2.388 1.67-.546 3.54-.82 5.61-.82 1.035 0 2.046.069 3.032.205.986.137 1.963.333 2.93.586.967.254 1.938.567 2.915.938.977.371 1.982.801 3.018 1.289l-2.93 7.061a57.847 57.847 0 00-2.461-1.084 23.764 23.764 0 00-2.227-.791 16.044 16.044 0 00-2.124-.483 13.716 13.716 0 00-2.095-.161c-1.523 0-2.69.406-3.501 1.216-.811.811-1.216 1.89-1.216 3.237 0 .723.122 1.362.366 1.919s.635 1.08 1.172 1.567c.537.488 1.23.986 2.08 1.494.85.508 1.88 1.084 3.091 1.729a50.849 50.849 0 014.043 2.388c1.23.811 2.29 1.709 3.179 2.695s1.577 2.104 2.065 3.354.734 2.716.734 4.395zM442.517 77.48c0 1.914-.327 3.638-.981 5.171s-1.611 2.842-2.871 3.926-2.803 1.919-4.629 2.505-3.921.879-6.284.879c-2.07 0-4.067-.215-5.991-.645s-3.706-1.074-5.347-1.934v-8.438c.938.449 1.885.884 2.842 1.304s1.929.796 2.915 1.128 1.973.596 2.959.791 1.968.293 2.944.293c.996 0 1.851-.112 2.563-.337s1.289-.537 1.729-.938.762-.879.967-1.436.308-1.167.308-1.831c0-.801-.171-1.509-.513-2.124s-.82-1.191-1.436-1.729-1.357-1.06-2.227-1.567-1.841-1.045-2.915-1.611a62.286 62.286 0 01-3.018-1.699 16.148 16.148 0 01-3.149-2.476c-.986-.986-1.812-2.178-2.476-3.574-.664-1.396-.996-3.071-.996-5.024 0-1.914.317-3.628.952-5.142.635-1.513 1.538-2.793 2.71-3.838 1.172-1.044 2.593-1.841 4.263-2.388 1.67-.546 3.54-.82 5.61-.82 1.035 0 2.046.069 3.032.205.986.137 1.963.333 2.93.586.967.254 1.938.567 2.915.938.977.371 1.982.801 3.018 1.289l-2.93 7.061a57.847 57.847 0 00-2.461-1.084 23.764 23.764 0 00-2.227-.791 16.044 16.044 0 00-2.124-.483 13.716 13.716 0 00-2.095-.161c-1.523 0-2.69.406-3.501 1.216-.811.811-1.216 1.89-1.216 3.237 0 .723.122 1.362.366 1.919s.635 1.08 1.172 1.567c.537.488 1.23.986 2.08 1.494.85.508 1.88 1.084 3.091 1.729a50.849 50.849 0 014.043 2.388c1.23.811 2.29 1.709 3.179 2.695s1.577 2.104 2.065 3.354.734 2.716.734 4.395zM490.153 56.123c0 1.484-.239 2.817-.718 3.999a9.996 9.996 0 01-1.963 3.105 11.072 11.072 0 01-2.93 2.227 15.332 15.332 0 01-3.647 1.362v.176c3.457.43 6.074 1.479 7.852 3.149s2.666 3.921 2.666 6.753c0 1.875-.337 3.608-1.011 5.2s-1.709 2.974-3.105 4.146-3.154 2.085-5.273 2.739-4.614.981-7.485.981c-2.305 0-4.473-.19-6.504-.571s-3.926-.962-5.684-1.743v-7.705c.879.469 1.807.879 2.783 1.23s1.953.649 2.93.894 1.938.425 2.886.542 1.841.176 2.681.176c1.68 0 3.076-.156 4.189-.469s2.002-.752 2.666-1.318 1.138-1.245 1.421-2.036.425-1.655.425-2.593c0-.879-.181-1.675-.542-2.388s-.947-1.318-1.758-1.816-1.87-.884-3.179-1.157-2.92-.41-4.834-.41h-3.047v-6.357h2.988c1.797 0 3.291-.161 4.482-.483s2.144-.762 2.856-1.318 1.216-1.206 1.509-1.948a6.402 6.402 0 00.439-2.373c0-1.523-.474-2.714-1.421-3.574-.947-.859-2.446-1.289-4.497-1.289-.938 0-1.812.093-2.622.278a14.36 14.36 0 00-4.16 1.641 23.09 23.09 0 00-1.567 1.011l-4.57-6.035a20.801 20.801 0 012.681-1.67c.967-.508 2.017-.952 3.149-1.333s2.354-.678 3.662-.894a25.853 25.853 0 014.189-.322c2.109 0 4.028.23 5.757.688 1.729.459 3.208 1.124 4.438 1.992 1.23.869 2.183 1.934 2.856 3.193s1.012 2.699 1.012 4.32z"></path><defs><filter filterUnits="userSpaceOnUse" x="298.928" y="51.926" width="22.581" height="18.715"><feColorMatrix values="1 0 0 0 0 0 1 0 0 0 0 0 1 0 0 0 0 0 1 0"></feColorMatrix></filter></defs><mask maskUnits="userSpaceOnUse" x="298.928" y="51.926" width="22.581" height="18.715"><linearGradient gradientUnits="userSpaceOnUse" x1="377.283" y1="-28422.133" x2="377.282" y2="-38902.191" gradientTransform="matrix(.0018 0 0 -.0018 121.482 -227.585)"><stop offset="0" stop-color="#fff" stop-opacity="0"></stop><stop offset=".388" stop-color="#fff"></stop><stop offset="1" stop-color="#fff" stop-opacity=".831"></stop></linearGradient><path fill="url(#a)" filter="url(#b)" d="M298.889 51.887h22.66v18.794h-22.66V51.887z"></path></mask><linearGradient gradientUnits="userSpaceOnUse" x1="377.283" y1="-28421.988" x2="377.283" y2="-38901.922" gradientTransform="matrix(.0018 0 0 -.0018 121.482 -227.585)"><stop offset="0" stop-color="#d2d3d4"></stop><stop offset=".388" stop-color="#d2d3d4"></stop><stop offset="1" stop-color="#d2d3d4"></stop></linearGradient><defs><filter filterUnits="userSpaceOnUse" x="321.509" y="41.853" width="24.187" height="19.454"><feColorMatrix values="1 0 0 0 0 0 1 0 0 0 0 0 1 0 0 0 0 0 1 0"></feColorMatrix></filter></defs><mask maskUnits="userSpaceOnUse" x="321.509" y="41.853" width="24.187" height="19.454"><linearGradient gradientUnits="userSpaceOnUse" x1="367.58" y1="-22781.318" x2="367.579" y2="-33674.449" gradientTransform="matrix(.0018 0 0 -.0018 121.482 -227.585)"><stop offset="0" stop-color="#fff" stop-opacity="0"></stop><stop offset=".388" stop-color="#fff"></stop><stop offset="1" stop-color="#fff" stop-opacity=".831"></stop></linearGradient><path fill="url(#e)" filter="url(#f)" d="M321.47 41.814h24.265v19.532H321.47V41.814z"></path></mask><linearGradient gradientUnits="userSpaceOnUse" x1="367.58" y1="-22781.43" x2="367.579" y2="-33674.75" gradientTransform="matrix(.0018 0 0 -.0018 121.482 -227.585)"><stop offset="0" stop-color="#d2d3d4"></stop><stop offset=".388" stop-color="#d2d3d4"></stop><stop offset="1" stop-color="#d2d3d4"></stop></linearGradient><linearGradient gradientUnits="userSpaceOnUse" x1="9362.141" y1="78.989" x2="34532.063" y2="78.989" gradientTransform="matrix(.0018 0 0 -.0018 121.482 -227.585)"><stop offset="0" stop-color="#e8e7e5"></stop><stop offset="1" stop-color="#fff"></stop></linearGradient><linearGradient gradientUnits="userSpaceOnUse" x1="8204.086" y1="46.615" x2="35530.633" y2="46.615" gradientTransform="matrix(.0018 0 0 -.0018 121.482 -227.585)"><stop offset="0" stop-color="#e8e7e5"></stop><stop offset="1" stop-color="#fff"></stop></linearGradient><path fill="#006838" d="M575.06 55.818l-38.676 39.64-18.116-17.171-12.729 12.734 30.845 29.912 51.407-52.385-12.731-12.73z"></path><path fill="#0067B1" d="M68.491 14.37l18.983 64.542 18.983-64.542h51.47v6.414l-19.379 33.384c6.812 2.184 11.962 6.157 15.451 11.916 3.489 5.766 5.234 12.525 5.234 20.29 0 9.606-2.55 17.68-7.655 24.221-5.105 6.548-11.718 9.818-19.836 9.818-6.11 0-11.435-1.944-15.972-5.826-4.539-3.883-7.9-9.143-10.081-15.773l10.734-4.449c1.573 4.011 3.646 7.179 6.221 9.49s5.609 3.47 9.097 3.47c3.663 0 6.767-2.054 9.297-6.154 2.53-4.102 3.799-9.033 3.799-14.796 0-6.374-1.358-11.306-4.063-14.795-3.143-4.101-8.074-6.151-14.794-6.151h-5.234v-6.282l18.328-31.685h-22.126l-1.259 2.144-26.907 90.808h-1.309l-19.638-65.72-19.637 65.72h-1.31L15.469 14.37h13.746L48.2 78.912l12.83-43.463-6.284-21.079h13.745z"></path><path fill-rule="evenodd" clip-rule="evenodd" fill="#010101" d="M229.256 19.906c2.002 0 2.917.557 2.917 1.949 0 1.336-.915 1.81-2.865 1.81h-1.81v-3.759h1.758zm.387-1.39h-4.288v11.355h2.144v-4.843h2.118l2.312 4.843h2.396l-2.537-5.176c1.642-.334 2.588-1.449 2.588-3.062-.002-2.06-1.56-3.117-4.733-3.117zm8.433 5.955c0 2.31-.895 4.454-2.53 6.039-1.731 1.671-3.869 2.561-6.238 2.561-2.228 0-4.423-.917-6.065-2.588-1.642-1.671-2.562-3.813-2.562-6.095 0-2.283.946-4.509 2.646-6.234 1.584-1.615 3.728-2.477 6.065-2.477 2.395 0 4.538.892 6.206 2.588 1.616 1.614 2.478 3.785 2.478 6.206zm-8.711-10.101c-2.697 0-5.125.974-6.96 2.837-1.944 1.977-3.032 4.538-3.032 7.181 0 2.645 1.03 5.092 2.923 7.014 1.919 1.948 4.397 3.005 7.069 3.005 2.614 0 5.15-1.058 7.127-2.978 1.887-1.836 2.917-4.286 2.917-7.042a10.01 10.01 0 00-2.891-7.041c-1.918-1.948-4.429-2.976-7.153-2.976z"></path><path fill="#010101" d="M212.51 13.771l2.228 13.538-7.88 15.08s-3.026-6.398-8.055-9.939c-4.236-2.984-6.998-3.633-11.312-2.743-5.544 1.143-11.821 7.77-14.563 15.938-3.283 9.775-3.315 14.504-3.432 18.85-.181 6.967.914 11.082.914 11.082s-4.783-8.853-4.738-21.821c.032-9.255 1.487-17.65 5.769-25.933 3.767-7.283 9.368-11.653 14.338-12.167 5.138-.531 9.2 1.946 12.336 4.625 3.296 2.815 6.631 8.969 6.631 8.969l7.764-15.479zM213.482 90.371s-3.483 6.227-5.653 8.628c-2.176 2.395-6.058 6.625-10.854 8.736-4.797 2.118-7.313 2.518-12.053 2.061-4.738-.457-9.142-3.2-10.681-4.346-1.545-1.14-5.485-4.514-7.713-7.655s-5.711-9.419-5.711-9.419 1.944 6.29 3.154 8.968c.702 1.539 2.846 6.239 5.897 10.334 2.846 3.824 8.37 10.397 16.766 11.885s14.164-2.285 15.594-3.2c1.429-.914 4.436-3.431 6.342-5.472 1.989-2.125 3.869-4.842 4.912-6.464.76-1.191 2.002-3.605 2.002-3.605l-2.002-10.451z"></path></svg>