<svg xmlns="http://www.w3.org/2000/svg" width="588" height="138" viewBox="0 0 588 138" aria-hidden="true" aria-label="Spełniamy Standard W3C HTML 5"><path fill="#F1F2F2" stroke="#808285" stroke-width="2" stroke-miterlimit="10" d="M1 1h561v136H1z"></path><path fill="#FFF" d="M1 1h254v136H1z"></path><path fill="#FFCC67" d="M255 1h307v136H255z"></path><path d="M319.407 89.376h-9.053V70.89h-14.561v18.486h-9.082V46.544h9.082v16.787h14.561V46.544h9.053v42.832zM345.833 89.376h-9.053V54.103h-10.752v-7.559h30.527v7.559h-10.723v35.273zM380.374 89.376l-9.404-33.604h-.264c.117 1.797.215 3.535.293 5.215.039.723.073 1.465.103 2.227l.088 2.256c.029.743.049 1.455.059 2.139.01.684.015 1.299.015 1.846v19.922h-8.115V46.544h12.363l9.258 32.754h.176l9.843-32.754h12.363v42.832h-8.467V69.103c0-.508.005-1.084.015-1.729a168.379 168.379 0 01.117-4.248c.029-.742.054-1.465.073-2.168.078-1.641.146-3.35.205-5.127h-.234l-10.137 33.545h-8.35zM417.932 89.376V46.544h9.082v35.332H442.6v7.5h-24.668zM477.756 62.013c1.836 0 3.545.283 5.127.85 1.582.567 2.959 1.396 4.131 2.49 1.172 1.094 2.09 2.457 2.754 4.087.664 1.631.996 3.501.996 5.61 0 2.324-.361 4.409-1.084 6.255s-1.787 3.408-3.193 4.688-3.149 2.261-5.229 2.944-4.468 1.025-7.163 1.025c-1.074 0-2.139-.049-3.193-.146s-2.065-.239-3.032-.425-1.885-.425-2.754-.718-1.655-.635-2.358-1.025v-7.822c.684.391 1.475.757 2.373 1.099s1.831.635 2.798.879 1.938.439 2.915.586 1.904.22 2.783.22c2.617 0 4.609-.542 5.977-1.626s2.051-2.808 2.051-5.171c0-2.109-.669-3.716-2.007-4.819s-3.403-1.655-6.196-1.655c-.508 0-1.05.029-1.626.088s-1.143.137-1.699.234-1.089.2-1.597.308-.947.22-1.318.337l-3.604-1.934 1.611-21.826h22.617v7.676H473.07l-.703 8.408a44.419 44.419 0 012.183-.41c.828-.138 1.897-.207 3.206-.207z"></path><defs><filter filterUnits="userSpaceOnUse" x="298.928" y="51.926" width="22.581" height="18.715"><feColorMatrix values="1 0 0 0 0 0 1 0 0 0 0 0 1 0 0 0 0 0 1 0"></feColorMatrix></filter></defs><mask maskUnits="userSpaceOnUse" x="298.928" y="51.926" width="22.581" height="18.715"><linearGradient gradientUnits="userSpaceOnUse" x1="377.283" y1="-28422.133" x2="377.282" y2="-38902.191" gradientTransform="matrix(.0018 0 0 -.0018 121.482 -227.585)"><stop offset="0" stop-color="#fff" stop-opacity="0"></stop><stop offset=".388" stop-color="#fff"></stop><stop offset="1" stop-color="#fff" stop-opacity=".831"></stop></linearGradient><path fill="url(#a)" filter="url(#b)" d="M298.889 51.887h22.66v18.794h-22.66V51.887z"></path></mask><linearGradient gradientUnits="userSpaceOnUse" x1="377.283" y1="-28421.988" x2="377.283" y2="-38901.922" gradientTransform="matrix(.0018 0 0 -.0018 121.482 -227.585)"><stop offset="0" stop-color="#d2d3d4"></stop><stop offset=".388" stop-color="#d2d3d4"></stop><stop offset="1" stop-color="#d2d3d4"></stop></linearGradient><defs><filter filterUnits="userSpaceOnUse" x="321.509" y="41.853" width="24.187" height="19.454"><feColorMatrix values="1 0 0 0 0 0 1 0 0 0 0 0 1 0 0 0 0 0 1 0"></feColorMatrix></filter></defs><mask maskUnits="userSpaceOnUse" x="321.509" y="41.853" width="24.187" height="19.454"><linearGradient gradientUnits="userSpaceOnUse" x1="367.58" y1="-22781.318" x2="367.579" y2="-33674.449" gradientTransform="matrix(.0018 0 0 -.0018 121.482 -227.585)"><stop offset="0" stop-color="#fff" stop-opacity="0"></stop><stop offset=".388" stop-color="#fff"></stop><stop offset="1" stop-color="#fff" stop-opacity=".831"></stop></linearGradient><path fill="url(#e)" filter="url(#f)" d="M321.47 41.814h24.265v19.532H321.47V41.814z"></path></mask><linearGradient gradientUnits="userSpaceOnUse" x1="367.58" y1="-22781.43" x2="367.579" y2="-33674.75" gradientTransform="matrix(.0018 0 0 -.0018 121.482 -227.585)"><stop offset="0" stop-color="#d2d3d4"></stop><stop offset=".388" stop-color="#d2d3d4"></stop><stop offset="1" stop-color="#d2d3d4"></stop></linearGradient><linearGradient gradientUnits="userSpaceOnUse" x1="9362.141" y1="78.989" x2="34532.063" y2="78.989" gradientTransform="matrix(.0018 0 0 -.0018 121.482 -227.585)"><stop offset="0" stop-color="#e8e7e5"></stop><stop offset="1" stop-color="#fff"></stop></linearGradient><linearGradient gradientUnits="userSpaceOnUse" x1="8204.086" y1="46.615" x2="35530.633" y2="46.615" gradientTransform="matrix(.0018 0 0 -.0018 121.482 -227.585)"><stop offset="0" stop-color="#e8e7e5"></stop><stop offset="1" stop-color="#fff"></stop></linearGradient><path fill="#006838" d="M575.06 55.818l-38.676 39.64-18.116-17.171-12.729 12.734 30.845 29.912 51.407-52.385-12.731-12.73z"></path><path fill="#0067B1" d="M68.491 14.37l18.983 64.542 18.983-64.542h51.47v6.414l-19.379 33.384c6.812 2.184 11.962 6.157 15.451 11.916 3.489 5.766 5.234 12.525 5.234 20.29 0 9.606-2.55 17.68-7.655 24.221-5.105 6.548-11.718 9.818-19.836 9.818-6.11 0-11.435-1.944-15.972-5.826-4.539-3.883-7.9-9.143-10.081-15.773l10.734-4.449c1.573 4.011 3.646 7.179 6.221 9.49s5.609 3.47 9.097 3.47c3.663 0 6.767-2.054 9.297-6.154 2.53-4.102 3.799-9.033 3.799-14.796 0-6.374-1.358-11.306-4.063-14.795-3.143-4.101-8.074-6.151-14.794-6.151h-5.234v-6.282l18.328-31.685h-22.126l-1.259 2.144-26.907 90.808h-1.309l-19.638-65.72-19.637 65.72h-1.31L15.469 14.37h13.746L48.2 78.912l12.83-43.463-6.284-21.079h13.745z"></path><path fill-rule="evenodd" clip-rule="evenodd" fill="#010101" d="M229.256 19.906c2.002 0 2.917.557 2.917 1.949 0 1.336-.915 1.81-2.865 1.81h-1.81v-3.759h1.758zm.387-1.39h-4.288v11.355h2.144v-4.843h2.118l2.312 4.843h2.396l-2.537-5.176c1.642-.334 2.588-1.449 2.588-3.062-.002-2.06-1.56-3.117-4.733-3.117zm8.433 5.955c0 2.31-.895 4.454-2.53 6.039-1.731 1.671-3.869 2.561-6.238 2.561-2.228 0-4.423-.917-6.065-2.588-1.642-1.671-2.562-3.813-2.562-6.095 0-2.283.946-4.509 2.646-6.234 1.584-1.615 3.728-2.477 6.065-2.477 2.395 0 4.538.892 6.206 2.588 1.616 1.614 2.478 3.785 2.478 6.206zm-8.711-10.101c-2.697 0-5.125.974-6.96 2.837-1.944 1.977-3.032 4.538-3.032 7.181 0 2.645 1.03 5.092 2.923 7.014 1.919 1.948 4.397 3.005 7.069 3.005 2.614 0 5.15-1.058 7.127-2.978 1.887-1.836 2.917-4.286 2.917-7.042a10.01 10.01 0 00-2.891-7.041c-1.918-1.948-4.429-2.976-7.153-2.976z"></path><path fill="#010101" d="M212.51 13.771l2.228 13.538-7.88 15.08s-3.026-6.398-8.055-9.939c-4.236-2.984-6.998-3.633-11.312-2.743-5.544 1.143-11.821 7.77-14.563 15.938-3.283 9.775-3.315 14.504-3.432 18.85-.181 6.967.914 11.082.914 11.082s-4.783-8.853-4.738-21.821c.032-9.255 1.487-17.65 5.769-25.933 3.767-7.283 9.368-11.653 14.338-12.167 5.138-.531 9.2 1.946 12.336 4.625 3.296 2.815 6.631 8.969 6.631 8.969l7.764-15.479zM213.482 90.371s-3.483 6.227-5.653 8.628c-2.176 2.395-6.058 6.625-10.854 8.736-4.797 2.118-7.313 2.518-12.053 2.061-4.738-.457-9.142-3.2-10.681-4.346-1.545-1.14-5.485-4.514-7.713-7.655s-5.711-9.419-5.711-9.419 1.944 6.29 3.154 8.968c.702 1.539 2.846 6.239 5.897 10.334 2.846 3.824 8.37 10.397 16.766 11.885s14.164-2.285 15.594-3.2c1.429-.914 4.436-3.431 6.342-5.472 1.989-2.125 3.869-4.842 4.912-6.464.76-1.191 2.002-3.605 2.002-3.605l-2.002-10.451z"></path></svg>